<svg xmlns="http://www.w3.org/2000/svg" width="151.689" height="29.896" viewBox="0 0 151.689 29.896">
  <g id="Group" transform="translate(-0.31)">
    <g id="Page_1" data-name="Page 1">
      <path id="Fill_4" data-name="Fill 4" d="M14.25,29.727a13.656,13.656,0,0,1-6.518-1.655A14.617,14.617,0,0,1,.681,19.392,15.326,15.326,0,0,1,1.587,8.057,14.591,14.591,0,0,1,6.94,2.109,13.876,13.876,0,0,1,14.273,0a13.648,13.648,0,0,1,6.519,1.653,14.618,14.618,0,0,1,7.051,8.681,15.323,15.323,0,0,1-.9,11.333,14.6,14.6,0,0,1-5.354,5.949,13.874,13.874,0,0,1-7.333,2.11h0Zm.2-24.524A9.014,9.014,0,0,0,7.9,7.979a9.824,9.824,0,0,0-2.676,6.815,10.047,10.047,0,0,0,.721,3.817,9.4,9.4,0,0,0,1.97,3.044,9.121,9.121,0,0,0,6.542,2.731,9.768,9.768,0,0,0,3.936-.821,8.746,8.746,0,0,0,3.208-2.4l-3.027-3.155a5.146,5.146,0,0,1-1.7,1.656,4.464,4.464,0,0,1-2.362.646,4.311,4.311,0,0,1-1.906-.442,5.084,5.084,0,0,1-1.575-1.183,5.662,5.662,0,0,1-1.059-1.75,6.049,6.049,0,0,1,0-4.291A5.556,5.556,0,0,1,11.049,10.9a5.387,5.387,0,0,1,1.574-1.183,4.23,4.23,0,0,1,1.892-.442,4.3,4.3,0,0,1,2.317.6,5.824,5.824,0,0,1,1.619,1.516l2.937-3.125a8.441,8.441,0,0,0-3.133-2.3A9.754,9.754,0,0,0,14.455,5.2Z" transform="translate(0.314 0.168)" fill="#fff"/>
    </g>
    <path id="lintickets" d="M90.434,29a9.276,9.276,0,0,1-6.82-2.866,9.539,9.539,0,0,1-2.83-6.926,9.515,9.515,0,0,1,2.83-6.908,9.6,9.6,0,0,1,12.814-.783c.275.232.559.495.843.783.106.108.207.216.3.32l-12.445,12.6a7.588,7.588,0,0,0,5.309,2.065,7.675,7.675,0,0,0,5.642-2.367c.208-.211.392-.415.562-.624l1.67.606a10.1,10.1,0,0,1-1.037,1.229A9.3,9.3,0,0,1,90.434,29Zm0-17.855A7.665,7.665,0,0,0,84.809,13.5a7.844,7.844,0,0,0-2.338,5.706,7.812,7.812,0,0,0,1.582,4.842l11.162-11.3A7.584,7.584,0,0,0,90.434,11.145ZM59.094,29a9.276,9.276,0,0,1-6.82-2.866,9.539,9.539,0,0,1-2.83-6.926,9.514,9.514,0,0,1,2.83-6.908,9.569,9.569,0,0,1,13.658,0,10.9,10.9,0,0,1,1.037,1.211l-1.669.624c-.167-.2-.356-.419-.563-.641a7.918,7.918,0,0,0-11.267.008,7.844,7.844,0,0,0-2.338,5.706,7.872,7.872,0,0,0,2.338,5.715,7.888,7.888,0,0,0,11.267,0c.21-.213.394-.417.563-.624l1.67.606a10.158,10.158,0,0,1-1.037,1.229A9.3,9.3,0,0,1,59.094,29Zm56.791-.071a4.906,4.906,0,0,1-3.621-1.522,4.7,4.7,0,0,1-1.494-3.338l1.564-.409a3.574,3.574,0,0,0,1.046,2.617,3.512,3.512,0,0,0,5.009,0,3.632,3.632,0,0,0,.009-5.091,15.353,15.353,0,0,0-2.268-1.674,12.827,12.827,0,0,1-2.795-1.886,4.074,4.074,0,0,1-1.213-2.956,4.123,4.123,0,0,1,1.213-2.982,3.954,3.954,0,0,1,2.918-1.237,3.849,3.849,0,0,1,2.848,1.139,3.576,3.576,0,0,1,1.09,2.546v.089l-1.371.552a3.494,3.494,0,0,0-.835-2.029,2.318,2.318,0,0,0-1.732-.677,2.479,2.479,0,0,0-1.811.757,2.614,2.614,0,0,0,0,3.676,12.428,12.428,0,0,0,1.864,1.354,14.75,14.75,0,0,1,3.2,2.207,5.259,5.259,0,0,1,0,7.344A4.906,4.906,0,0,1,115.885,28.929ZM71.046,28.5H69.464V3.578h1.582V17.019l4.8-6h2.038L73.63,16.36,80.414,28.5l-1.968,0L72.593,17.642l-1.547,1.94V28.5Zm-51.87,0H15.521V10.183h3.656v2.137a4.472,4.472,0,0,1,4.587-3.133,5.75,5.75,0,0,1,4.667,2.11,8.337,8.337,0,0,1,1.784,5.3V28.5H26.576V16.735a3.7,3.7,0,0,0-1.142-2.715A3.86,3.86,0,0,0,20,13.992a4.178,4.178,0,0,0-.826,1.1V28.5Zm85.934,0h-1.582V12.622h-3.515v-1.6h3.515V3.578h1.582V11.02h3.515v1.6H105.11V28.5Zm-58.777,0H44.751V11.02h1.582V28.5Zm-8.209,0H36.543V12.622H33.027v-1.6h3.515V3.578h1.581V11.02H41.64v1.6H38.124V28.5Zm-26.716,0H7.769V10.183h3.639V28.5Zm-7.752,0H0V0H3.656V28.5ZM45.542,8.011a1.533,1.533,0,0,1-1.116-.463,1.551,1.551,0,0,1-.466-1.139,1.582,1.582,0,0,1,3.164,0,1.551,1.551,0,0,1-.466,1.139A1.533,1.533,0,0,1,45.542,8.011ZM9.58,7.816a2.471,2.471,0,0,1-1.793-.748,2.491,2.491,0,0,1-.756-1.834A2.49,2.49,0,0,1,7.787,3.4a2.543,2.543,0,0,1,3.6,0,2.49,2.49,0,0,1,.756,1.833A2.567,2.567,0,0,1,9.58,7.816Z" transform="translate(31)" fill="#fff"/>
  </g>
</svg>
